<?xml version="1.0" encoding="utf-8"?>
<!-- Generator: Adobe Illustrator 16.0.0, SVG Export Plug-In . SVG Version: 6.00 Build 0)  -->
<!DOCTYPE svg PUBLIC "-//W3C//DTD SVG 1.1//EN" "http://www.w3.org/Graphics/SVG/1.1/DTD/svg11.dtd">
<svg version="1.1" id="Layer_2" xmlns="http://www.w3.org/2000/svg" xmlns:xlink="http://www.w3.org/1999/xlink" x="0px" y="0px"
	 width="65.667px" height="87.667px" viewBox="165.869 32.33 65.667 87.667" enable-background="new 165.869 32.33 65.667 87.667"
	 xml:space="preserve">
<polygon id="overall_1_" fill="#181832" points="167.523,33.331 230.578,33.331 230.578,85.258 229.96,89.586 228.311,95.768 
	224.809,103.392 219.452,110.397 213.887,114.725 207.294,118.022 202.966,119.258 199.257,119.258 195.755,119.258 
	190.396,118.022 184.01,114.519 178.857,110.397 173.293,103.392 169.585,95.974 167.935,89.38 167.523,84.846 "/>
<g id="rctgl">
	<rect x="170.908" y="47.446" fill="#FCD6D3" width="56.34" height="0.707"/>
</g>
<g id="details">
	<g id="Layer_4">
		<ellipse fill="none" stroke="#E9B356" stroke-miterlimit="10" cx="184.394" cy="59.234" rx="1.269" ry="1.186"/>
		<ellipse fill="none" stroke="#E9B356" stroke-miterlimit="10" cx="213.877" cy="59.234" rx="1.27" ry="1.186"/>
		<ellipse fill="none" stroke="#E9B356" stroke-miterlimit="10" cx="184.359" cy="59.089" rx="3.304" ry="3.089"/>
		<ellipse fill="none" stroke="#E9B356" stroke-miterlimit="10" cx="213.843" cy="59.089" rx="3.304" ry="3.089"/>
	</g>
	<polygon fill="none" stroke="#E9B356" stroke-miterlimit="10" points="210.638,64.207 210.638,92.428 187.517,92.428 
		187.517,64.157 186.507,64.762 184.639,65.116 182.418,64.762 180.65,63.903 179.388,62.389 178.581,60.976 178.48,58.048 
		178.884,56.433 180.297,54.615 181.609,53.706 183.125,53.1 184.943,52.999 214.426,52.999 216.041,53.504 217.656,54.514 
		219.069,55.928 219.978,57.745 219.878,59.865 218.969,62.591 217.253,63.903 215.637,64.813 213.618,65.116 212.304,65.116 	"/>
	<polyline fill="none" stroke="#E9B356" stroke-miterlimit="10" points="195.073,92.143 195.073,62.591 194.062,60.909 
		193.121,60.572 191.708,60.773 190.361,62.322 190.361,92.073 	"/>
	<polyline fill="none" stroke="#E9B356" stroke-miterlimit="10" points="201.535,92.143 201.535,62.591 200.525,60.909 
		199.583,60.572 198.17,60.773 196.823,62.322 196.823,92.073 	"/>
	<polyline fill="none" stroke="#E9B356" stroke-miterlimit="10" points="207.997,92.344 207.997,62.793 206.987,61.11 
		206.044,60.773 204.631,60.976 203.286,62.523 203.286,92.275 	"/>
</g>
<g>
	<path fill="#FFFFFF" d="M171.757,39.695h-1.063V38.92h3.044v0.775h-1.08v3.308h-0.901V39.695z"/>
	<path fill="#FFFFFF" d="M175.113,38.92v1.569h1.475V38.92h0.893v4.083h-0.893v-1.709h-1.475v1.709h-0.899V38.92H175.113z"/>
	<path fill="#FFFFFF" d="M180.619,41.276h-1.458v0.97h1.627v0.757h-2.526v-4.083h2.444v0.757h-1.545v0.849h1.458V41.276z"/>
	<path fill="#FFFFFF" d="M185.896,42.815c-0.276,0.098-0.799,0.23-1.322,0.23c-0.723,0-1.245-0.188-1.61-0.551
		c-0.364-0.352-0.564-0.885-0.558-1.485c0.005-1.356,0.963-2.132,2.262-2.132c0.512,0,0.906,0.104,1.1,0.2l-0.188,0.739
		c-0.218-0.097-0.488-0.176-0.923-0.176c-0.747,0-1.311,0.437-1.311,1.32c0,0.841,0.511,1.339,1.246,1.339
		c0.206,0,0.37-0.024,0.441-0.06v-0.855h-0.611v-0.722h1.475V42.815L185.896,42.815z"/>
	<path fill="#FFFFFF" d="M186.594,38.975c0.289-0.048,0.718-0.084,1.194-0.084c0.588,0,0.999,0.09,1.281,0.32
		c0.235,0.194,0.364,0.479,0.364,0.854c0,0.521-0.359,0.879-0.699,1.006v0.018c0.276,0.116,0.428,0.388,0.529,0.764
		c0.124,0.46,0.247,0.993,0.323,1.15h-0.917c-0.066-0.115-0.159-0.448-0.277-0.951c-0.104-0.509-0.275-0.647-0.64-0.654h-0.27v1.605
		h-0.888L186.594,38.975L186.594,38.975z M187.483,40.731h0.353c0.447,0,0.711-0.23,0.711-0.588c0-0.375-0.247-0.563-0.659-0.569
		c-0.217,0-0.34,0.018-0.405,0.03V40.731z"/>
	<path fill="#FFFFFF" d="M192.436,41.276h-1.457v0.97h1.627v0.757h-2.526v-4.083h2.445v0.757h-1.546v0.849h1.457V41.276z"/>
	<path fill="#FFFFFF" d="M194.14,41.955l-0.282,1.048h-0.928l1.21-4.083h1.175l1.228,4.083h-0.963l-0.306-1.048H194.14z
		 M195.145,41.265l-0.247-0.867c-0.071-0.242-0.141-0.545-0.199-0.788h-0.012c-0.059,0.243-0.118,0.552-0.183,0.788l-0.235,0.867
		H195.145z"/>
	<path fill="#FFFFFF" d="M197.348,39.695h-1.063V38.92h3.044v0.775h-1.082v3.308h-0.899V39.695z"/>
	<path fill="#FFFFFF" d="M200.992,38.975c0.329-0.054,0.758-0.084,1.211-0.084c0.753,0,1.239,0.139,1.621,0.436
		c0.411,0.316,0.669,0.818,0.669,1.539c0,0.782-0.274,1.32-0.657,1.653c-0.417,0.357-1.051,0.527-1.827,0.527
		c-0.465,0-0.793-0.029-1.017-0.06L200.992,38.975L200.992,38.975z M201.892,42.306c0.075,0.019,0.199,0.019,0.311,0.019
		c0.812,0.006,1.341-0.455,1.341-1.429c0.004-0.849-0.477-1.296-1.247-1.296c-0.199,0-0.33,0.018-0.405,0.036V42.306z"/>
	<path fill="#FFFFFF" d="M207.438,41.276h-1.458v0.97h1.629v0.757h-2.528v-4.083h2.445v0.757h-1.546v0.849h1.458V41.276z"/>
	<path fill="#FFFFFF" d="M208.22,38.975c0.234-0.048,0.711-0.084,1.158-0.084c0.546,0,0.881,0.054,1.168,0.23
		c0.277,0.151,0.476,0.431,0.476,0.8c0,0.363-0.204,0.702-0.651,0.872v0.012c0.453,0.127,0.787,0.479,0.787,1.006
		c0,0.37-0.164,0.66-0.411,0.866c-0.289,0.236-0.771,0.369-1.557,0.369c-0.441,0-0.771-0.029-0.97-0.06V38.975L208.22,38.975z
		 M209.107,40.537h0.295c0.469,0,0.722-0.199,0.722-0.502c0-0.309-0.229-0.472-0.635-0.472c-0.193,0-0.305,0.012-0.382,0.024V40.537
		L209.107,40.537z M209.107,42.349c0.089,0.012,0.194,0.012,0.347,0.012c0.405,0,0.765-0.158,0.765-0.588
		c0-0.412-0.359-0.576-0.806-0.576h-0.307L209.107,42.349L209.107,42.349z"/>
	<path fill="#FFFFFF" d="M212.668,41.955l-0.281,1.048h-0.929l1.21-4.083h1.176l1.228,4.083h-0.964l-0.306-1.048H212.668z
		 M213.673,41.265l-0.246-0.867c-0.071-0.242-0.142-0.545-0.199-0.788h-0.013c-0.06,0.243-0.117,0.552-0.183,0.788l-0.235,0.867
		H213.673z"/>
	<path fill="#FFFFFF" d="M215.877,39.695h-1.064V38.92h3.045v0.775h-1.081v3.308h-0.899V39.695z"/>
	<path fill="#FFFFFF" d="M220.689,41.276h-1.456v0.97h1.626v0.757h-2.525v-4.083h2.443v0.757h-1.544v0.849h1.456V41.276z"/>
	<path fill="#FFFFFF" d="M221.47,38.975c0.288-0.048,0.719-0.084,1.194-0.084c0.588,0,0.998,0.09,1.281,0.32
		c0.235,0.194,0.364,0.479,0.364,0.854c0,0.521-0.357,0.879-0.699,1.006v0.018c0.276,0.116,0.43,0.388,0.528,0.764
		c0.124,0.46,0.248,0.993,0.323,1.15h-0.916c-0.063-0.115-0.159-0.448-0.276-0.951c-0.106-0.509-0.276-0.647-0.64-0.654h-0.271
		v1.605h-0.888L221.47,38.975L221.47,38.975z M222.358,40.731h0.353c0.447,0,0.711-0.23,0.711-0.588
		c0-0.375-0.247-0.563-0.657-0.569c-0.218,0-0.341,0.018-0.406,0.03V40.731z"/>
	<path fill="#FFFFFF" d="M224.985,42.052c0.242,0.128,0.611,0.254,0.993,0.254c0.411,0,0.629-0.176,0.629-0.443
		c0-0.254-0.188-0.399-0.664-0.576c-0.659-0.236-1.088-0.611-1.088-1.205c0-0.696,0.564-1.23,1.499-1.23
		c0.446,0,0.775,0.097,1.011,0.206l-0.2,0.745c-0.158-0.079-0.439-0.193-0.828-0.193c-0.388,0-0.576,0.181-0.576,0.393
		c0,0.261,0.224,0.375,0.734,0.576c0.699,0.267,1.029,0.643,1.029,1.218c0,0.685-0.512,1.267-1.6,1.267
		c-0.451,0-0.898-0.121-1.121-0.249L224.985,42.052z"/>
</g>
<g>
	<path fill="#FFFFFF" d="M184.615,97.854h-1.097v-0.775h3.138v0.775h-1.113v3.309h-0.928V97.854L184.615,97.854z"/>
	<path fill="#FFFFFF" d="M190.383,100.974c-0.284,0.098-0.824,0.23-1.364,0.23c-0.746,0-1.284-0.188-1.66-0.551
		c-0.375-0.353-0.581-0.885-0.575-1.484c0.007-1.358,0.994-2.132,2.333-2.132c0.527,0,0.933,0.102,1.133,0.198l-0.193,0.739
		c-0.224-0.097-0.503-0.176-0.952-0.176c-0.77,0-1.35,0.437-1.35,1.321c0,0.841,0.526,1.339,1.283,1.339
		c0.212,0,0.382-0.024,0.456-0.061v-0.854h-0.631v-0.721h1.521V100.974L190.383,100.974z"/>
	<path fill="#FFFFFF" d="M191.103,97.133c0.339-0.055,0.782-0.084,1.247-0.084c0.776,0,1.279,0.139,1.672,0.436
		c0.424,0.314,0.691,0.818,0.691,1.539c0,0.78-0.284,1.321-0.679,1.653c-0.43,0.358-1.083,0.527-1.883,0.527
		c-0.48,0-0.819-0.029-1.048-0.061L191.103,97.133L191.103,97.133z M192.03,100.464c0.078,0.019,0.206,0.019,0.32,0.019
		c0.837,0.007,1.381-0.453,1.381-1.43c0.005-0.849-0.49-1.298-1.284-1.298c-0.206,0-0.34,0.021-0.418,0.038V100.464z"/>
	<path fill="#FFFFFF" d="M198.972,99.434h-1.502v0.97h1.678v0.759h-2.605v-4.084h2.521v0.758h-1.593v0.848h1.502V99.434z"/>
	<path fill="#FFFFFF" d="M199.778,101.162v-4.084h1.079l0.847,1.496c0.244,0.431,0.486,0.94,0.667,1.4h0.018
		c-0.062-0.539-0.079-1.091-0.079-1.702v-1.193h0.848v4.083h-0.969l-0.872-1.575c-0.241-0.437-0.508-0.964-0.708-1.442l-0.018,0.007
		c0.024,0.539,0.036,1.114,0.036,1.78v1.23H199.778z"/>
	<path fill="#FFFFFF" d="M203.989,100.21c0.248,0.127,0.63,0.254,1.023,0.254c0.425,0,0.648-0.175,0.648-0.442
		c0-0.254-0.193-0.398-0.686-0.575c-0.679-0.235-1.121-0.611-1.121-1.205c0-0.697,0.582-1.229,1.546-1.229
		c0.46,0,0.8,0.098,1.042,0.205l-0.207,0.746c-0.162-0.079-0.453-0.193-0.854-0.193c-0.398,0-0.593,0.181-0.593,0.394
		c0,0.261,0.229,0.375,0.757,0.576c0.721,0.267,1.059,0.643,1.059,1.218c0,0.684-0.525,1.266-1.646,1.266
		c-0.467,0-0.928-0.121-1.156-0.249L203.989,100.21z"/>
	<path fill="#FFFFFF" d="M208.18,100.113l-0.29,1.049h-0.957l1.247-4.084h1.212l1.266,4.084h-0.993l-0.313-1.049H208.18z
		 M209.216,99.423l-0.254-0.866c-0.072-0.242-0.145-0.545-0.205-0.787h-0.014c-0.06,0.242-0.12,0.552-0.186,0.787l-0.245,0.866
		H209.216z"/>
	<path fill="#FFFFFF" d="M212.13,97.078v1.569h1.521v-1.569h0.921v4.084h-0.921v-1.71h-1.521v1.71h-0.927v-4.084H212.13z"/>
</g>
<g>
	<path fill="#E9B356" d="M192.844,110.003c0.193,0.111,0.485,0.208,0.791,0.208c0.382,0,0.596-0.179,0.596-0.444
		c0-0.248-0.165-0.394-0.581-0.544c-0.538-0.194-0.882-0.479-0.882-0.949c0-0.533,0.447-0.94,1.154-0.94
		c0.354,0,0.615,0.077,0.785,0.164l-0.145,0.479c-0.116-0.063-0.344-0.154-0.65-0.154c-0.378,0-0.542,0.204-0.542,0.393
		c0,0.252,0.189,0.369,0.625,0.538c0.568,0.214,0.844,0.499,0.844,0.969c0,0.524-0.398,0.979-1.241,0.979
		c-0.344,0-0.703-0.098-0.882-0.204L192.844,110.003z"/>
	<path fill="#E9B356" d="M195.97,107.386v3.268h-0.597v-3.268H195.97z"/>
	<path fill="#E9B356" d="M196.654,110.653v-3.268h0.678l0.843,1.401c0.219,0.363,0.407,0.741,0.558,1.095h0.009
		c-0.039-0.436-0.052-0.858-0.052-1.357v-1.139h0.552v3.268h-0.615l-0.853-1.435c-0.208-0.359-0.426-0.762-0.587-1.131l-0.014,0.006
		c0.023,0.42,0.029,0.853,0.029,1.391v1.169H196.654z"/>
	<path fill="#E9B356" d="M202.27,110.556c-0.14,0.073-0.45,0.146-0.842,0.146c-1.038,0-1.667-0.648-1.667-1.643
		c0-1.077,0.747-1.726,1.745-1.726c0.393,0,0.673,0.082,0.795,0.146l-0.132,0.475c-0.155-0.067-0.369-0.126-0.639-0.126
		c-0.665,0-1.145,0.417-1.145,1.202c0,0.718,0.422,1.179,1.139,1.179c0.243,0,0.495-0.049,0.648-0.121L202.27,110.556z"/>
	<path fill="#E9B356" d="M204.608,109.204h-1.232v0.959h1.377v0.49h-1.973v-3.268h1.898v0.489h-1.303v0.843h1.232V109.204z"/>
</g>
<g>
	<path fill="#E9B356" d="M194.839,113.521v0.332h-0.995v-0.332H194.839z"/>
	<path fill="#E9B356" d="M195.122,114.727v-0.293l0.302-0.277c0.597-0.555,0.876-0.858,0.88-1.193c0-0.227-0.12-0.425-0.452-0.425
		c-0.222,0-0.414,0.112-0.542,0.209l-0.14-0.338c0.183-0.148,0.459-0.262,0.78-0.262c0.562,0,0.835,0.354,0.835,0.769
		c0,0.444-0.319,0.804-0.761,1.212l-0.221,0.191v0.009h1.042v0.397L195.122,114.727L195.122,114.727z"/>
	<path fill="#E9B356" d="M199.004,113.443c0,0.814-0.32,1.326-0.925,1.326c-0.585,0-0.898-0.529-0.901-1.302
		c0-0.789,0.335-1.319,0.928-1.319C198.719,112.147,199.004,112.693,199.004,113.443z M197.661,113.467
		c-0.003,0.616,0.168,0.936,0.433,0.936c0.281,0,0.429-0.344,0.429-0.952c0-0.588-0.141-0.937-0.429-0.937
		C197.837,112.515,197.658,112.83,197.661,113.467z"/>
	<path fill="#E9B356" d="M200.057,112.623h-0.008l-0.464,0.234l-0.083-0.361l0.616-0.305h0.402v2.536h-0.464V112.623
		L200.057,112.623z"/>
	<path fill="#E9B356" d="M202.452,114.727v-0.644h-1.147v-0.313l1.034-1.579h0.566v1.528h0.327v0.363h-0.327v0.644H202.452z
		 M202.452,113.72v-0.689c0-0.146,0.004-0.294,0.015-0.441h-0.015c-0.078,0.159-0.145,0.288-0.223,0.429l-0.463,0.694l-0.004,0.008
		H202.452z"/>
	<path fill="#E9B356" d="M204.428,113.521v0.332h-0.995v-0.332H204.428z"/>
</g>
</svg>
