<?xml version="1.0" encoding="utf-8"?>
<!-- Generator: Adobe Illustrator 16.0.0, SVG Export Plug-In . SVG Version: 6.00 Build 0)  -->
<!DOCTYPE svg PUBLIC "-//W3C//DTD SVG 1.1//EN" "http://www.w3.org/Graphics/SVG/1.1/DTD/svg11.dtd">
<svg version="1.1" id="Layer_2" xmlns="http://www.w3.org/2000/svg" xmlns:xlink="http://www.w3.org/1999/xlink" x="0px" y="0px"
	 width="403.404px" height="158.992px" viewBox="0 0 403.404 158.992" enable-background="new 0 0 403.404 158.992"
	 xml:space="preserve">
<polygon id="overall_1_" fill="#181832" points="152.523,14.331 241.578,14.331 241.578,87.67 240.705,93.781 238.377,102.512 
	233.43,113.28 225.863,123.175 218.006,129.286 208.692,133.943 202.58,135.689 197.342,135.689 192.395,135.689 184.828,133.943 
	175.807,128.995 168.53,123.175 160.672,113.28 155.434,102.803 153.105,93.49 152.523,87.087 "/>
<g id="rctgl">
	<rect x="157.303" y="34.266" fill="#FCD6D3" width="79.572" height="0.998"/>
</g>
<g id="details">
	<g id="Layer_4">
		<ellipse fill="none" stroke="#E9B356" stroke-miterlimit="10" cx="176.35" cy="50.915" rx="1.792" ry="1.675"/>
		<ellipse fill="none" stroke="#E9B356" stroke-miterlimit="10" cx="217.99" cy="50.915" rx="1.793" ry="1.675"/>
		<ellipse fill="none" stroke="#E9B356" stroke-miterlimit="10" cx="176.301" cy="50.71" rx="4.666" ry="4.362"/>
		<ellipse fill="none" stroke="#E9B356" stroke-miterlimit="10" cx="217.941" cy="50.71" rx="4.667" ry="4.362"/>
	</g>
	<polygon fill="none" stroke="#E9B356" stroke-miterlimit="10" points="213.417,57.938 213.417,97.796 180.761,97.796 
		180.761,57.867 179.335,58.722 176.697,59.222 173.56,58.722 171.063,57.51 169.281,55.371 168.141,53.375 167.998,49.24 
		168.568,46.958 170.564,44.391 172.418,43.107 174.558,42.252 177.125,42.109 218.765,42.109 221.047,42.822 223.328,44.248 
		225.324,46.245 226.607,48.812 226.465,51.806 225.182,55.656 222.758,57.51 220.477,58.794 217.624,59.222 215.77,59.222 	"/>
	<polyline fill="none" stroke="#E9B356" stroke-miterlimit="10" points="191.433,97.392 191.433,55.656 190.006,53.28 
		188.676,52.804 186.679,53.089 184.777,55.276 184.777,97.296 	"/>
	<polyline fill="none" stroke="#E9B356" stroke-miterlimit="10" points="200.559,97.392 200.559,55.656 199.133,53.28 
		197.802,52.804 195.806,53.089 193.904,55.276 193.904,97.296 	"/>
	<polyline fill="none" stroke="#E9B356" stroke-miterlimit="10" points="209.686,97.677 209.686,55.941 208.26,53.565 
		206.928,53.089 204.932,53.375 203.031,55.561 203.031,97.581 	"/>
</g>
<g>
	<path fill="#FFFFFF" d="M158.503,23.32h-1.502v-1.095h4.299v1.095h-1.526v4.671h-1.271V23.32z"/>
	<path fill="#FFFFFF" d="M163.242,22.225v2.216h2.083v-2.216h1.261v5.767h-1.261v-2.413h-2.083v2.413h-1.27v-5.767H163.242z"/>
	<path fill="#FFFFFF" d="M171.019,25.553h-2.058v1.369h2.298v1.069h-3.568v-5.767h3.452v1.069h-2.182v1.198h2.058V25.553z"/>
	<path fill="#FFFFFF" d="M178.471,27.726c-0.39,0.138-1.128,0.326-1.867,0.326c-1.02,0-1.759-0.265-2.273-0.778
		c-0.515-0.497-0.797-1.25-0.788-2.097c0.008-1.916,1.36-3.011,3.194-3.011c0.723,0,1.279,0.146,1.553,0.282l-0.266,1.044
		c-0.308-0.137-0.689-0.249-1.304-0.249c-1.054,0-1.851,0.617-1.851,1.865c0,1.189,0.723,1.891,1.76,1.891
		c0.291,0,0.522-0.034,0.623-0.085v-1.207h-0.864v-1.019h2.083V27.726z"/>
	<path fill="#FFFFFF" d="M179.459,22.302c0.407-0.068,1.013-0.12,1.685-0.12c0.83,0,1.411,0.128,1.81,0.453
		c0.332,0.274,0.514,0.676,0.514,1.207c0,0.736-0.506,1.241-0.986,1.42v0.026c0.39,0.163,0.605,0.547,0.746,1.078
		c0.175,0.65,0.349,1.403,0.457,1.625h-1.295c-0.092-0.162-0.224-0.633-0.391-1.343c-0.148-0.719-0.389-0.915-0.904-0.924h-0.381
		v2.267h-1.254V22.302z M180.713,24.783h0.498c0.631,0,1.004-0.326,1.004-0.831c0-0.53-0.349-0.795-0.93-0.804
		c-0.308,0-0.481,0.026-0.572,0.043V24.783z"/>
	<path fill="#FFFFFF" d="M187.709,25.553h-2.059v1.369h2.299v1.069h-3.568v-5.767h3.453v1.069h-2.184v1.198h2.059V25.553z"/>
	<path fill="#FFFFFF" d="M190.115,26.511l-0.398,1.48h-1.311l1.709-5.767h1.66l1.734,5.767h-1.361l-0.432-1.48H190.115z
		 M191.534,25.536l-0.349-1.224c-0.1-0.342-0.199-0.77-0.281-1.112h-0.017c-0.083,0.342-0.167,0.779-0.258,1.112l-0.332,1.224
		H191.534z"/>
	<path fill="#FFFFFF" d="M194.646,23.32h-1.502v-1.095h4.299v1.095h-1.527v4.671h-1.27V23.32z"/>
	<path fill="#FFFFFF" d="M199.793,22.302c0.464-0.077,1.07-0.12,1.709-0.12c1.063,0,1.752,0.197,2.291,0.616
		c0.581,0.445,0.945,1.155,0.945,2.173c0,1.104-0.389,1.865-0.93,2.335c-0.588,0.505-1.484,0.745-2.58,0.745
		c-0.656,0-1.121-0.042-1.436-0.085V22.302z M201.063,27.007c0.107,0.026,0.281,0.026,0.439,0.026
		c1.146,0.009,1.893-0.642,1.893-2.019c0.008-1.198-0.672-1.831-1.76-1.831c-0.282,0-0.465,0.026-0.572,0.051V27.007z"/>
	<path fill="#FFFFFF" d="M208.896,25.553h-2.058v1.369h2.299v1.069h-3.568v-5.767h3.452v1.069h-2.183v1.198h2.058V25.553z"/>
	<path fill="#FFFFFF" d="M210.002,22.302c0.331-0.068,1.004-0.12,1.635-0.12c0.771,0,1.244,0.077,1.65,0.325
		c0.391,0.214,0.672,0.608,0.672,1.13c0,0.513-0.289,0.992-0.92,1.232v0.017c0.639,0.18,1.111,0.676,1.111,1.42
		c0,0.522-0.232,0.932-0.581,1.223c-0.407,0.334-1.087,0.522-2.198,0.522c-0.623,0-1.088-0.042-1.369-0.085V22.302z M211.254,24.509
		h0.416c0.663,0,1.02-0.282,1.02-0.71c0-0.437-0.323-0.667-0.896-0.667c-0.274,0-0.432,0.017-0.54,0.034V24.509z M211.254,27.067
		c0.125,0.017,0.274,0.017,0.49,0.017c0.572,0,1.079-0.223,1.079-0.83c0-0.582-0.507-0.813-1.138-0.813h-0.432V27.067z"/>
	<path fill="#FFFFFF" d="M216.283,26.511l-0.398,1.48h-1.311l1.709-5.767h1.66l1.734,5.767h-1.361l-0.432-1.48H216.283z
		 M217.702,25.536l-0.348-1.224c-0.101-0.342-0.2-0.77-0.282-1.112h-0.018c-0.083,0.342-0.165,0.779-0.257,1.112l-0.331,1.224
		H217.702z"/>
	<path fill="#FFFFFF" d="M220.815,23.32h-1.503v-1.095h4.3v1.095h-1.527v4.671h-1.27V23.32z"/>
	<path fill="#FFFFFF" d="M227.611,25.553h-2.057v1.369h2.298v1.069h-3.567v-5.767h3.451v1.069h-2.182v1.198h2.057V25.553z"/>
	<path fill="#FFFFFF" d="M228.716,22.302c0.407-0.068,1.013-0.12,1.685-0.12c0.83,0,1.411,0.128,1.81,0.453
		c0.333,0.274,0.514,0.676,0.514,1.207c0,0.736-0.505,1.241-0.987,1.42v0.026c0.391,0.163,0.607,0.547,0.747,1.078
		c0.175,0.65,0.35,1.403,0.456,1.625h-1.294c-0.091-0.162-0.224-0.633-0.39-1.343c-0.15-0.719-0.391-0.915-0.904-0.924h-0.383v2.267
		h-1.253V22.302z M229.969,24.783h0.498c0.631,0,1.004-0.326,1.004-0.831c0-0.53-0.348-0.795-0.929-0.804
		c-0.308,0-0.481,0.026-0.573,0.043V24.783z"/>
	<path fill="#FFFFFF" d="M233.679,26.648c0.341,0.18,0.863,0.359,1.403,0.359c0.581,0,0.888-0.248,0.888-0.625
		c0-0.359-0.266-0.564-0.938-0.813c-0.931-0.333-1.536-0.864-1.536-1.703c0-0.983,0.797-1.737,2.117-1.737
		c0.63,0,1.095,0.137,1.427,0.291l-0.282,1.053c-0.224-0.112-0.622-0.274-1.17-0.274c-0.547,0-0.813,0.256-0.813,0.556
		c0,0.368,0.315,0.53,1.037,0.813c0.988,0.377,1.453,0.907,1.453,1.72c0,0.967-0.723,1.789-2.258,1.789
		c-0.639,0-1.27-0.171-1.584-0.352L233.679,26.648z"/>
</g>
<g>
	<path fill="#FFFFFF" d="M176.662,105.459h-1.549v-1.095h4.432v1.095h-1.573v4.672h-1.31V105.459z"/>
	<path fill="#FFFFFF" d="M184.808,109.866c-0.401,0.137-1.163,0.325-1.925,0.325c-1.053,0-1.814-0.265-2.345-0.779
		c-0.53-0.497-0.821-1.249-0.813-2.096c0.01-1.917,1.404-3.012,3.295-3.012c0.744,0,1.318,0.146,1.6,0.282l-0.273,1.044
		c-0.316-0.138-0.71-0.249-1.344-0.249c-1.086,0-1.907,0.617-1.907,1.866c0,1.189,0.744,1.891,1.813,1.891
		c0.3,0,0.539-0.035,0.642-0.085v-1.207h-0.89v-1.018h2.147V109.866z"/>
	<path fill="#FFFFFF" d="M185.826,104.441c0.479-0.077,1.104-0.119,1.762-0.119c1.096,0,1.806,0.196,2.362,0.616
		c0.599,0.444,0.976,1.155,0.976,2.173c0,1.103-0.402,1.865-0.959,2.335c-0.607,0.505-1.531,0.745-2.66,0.745
		c-0.677,0-1.156-0.042-1.48-0.086V104.441z M187.135,109.147c0.111,0.025,0.291,0.025,0.453,0.025
		c1.182,0.009,1.951-0.641,1.951-2.019c0.008-1.199-0.693-1.832-1.814-1.832c-0.29,0-0.479,0.026-0.59,0.052V109.147z"/>
	<path fill="#FFFFFF" d="M196.94,107.692h-2.122v1.369h2.37v1.07h-3.679v-5.767h3.559v1.069h-2.25v1.198h2.122V107.692z"/>
	<path fill="#FFFFFF" d="M198.078,110.131v-5.767h1.523l1.197,2.113c0.343,0.608,0.685,1.327,0.941,1.977h0.025
		c-0.086-0.761-0.111-1.54-0.111-2.404v-1.685h1.198v5.767h-1.369l-1.232-2.225c-0.341-0.617-0.718-1.361-1-2.037l-0.026,0.009
		c0.034,0.761,0.051,1.574,0.051,2.515v1.737H198.078z"/>
	<path fill="#FFFFFF" d="M204.025,108.787c0.35,0.18,0.89,0.36,1.445,0.36c0.6,0,0.916-0.249,0.916-0.625
		c0-0.36-0.273-0.565-0.967-0.813c-0.959-0.333-1.583-0.864-1.583-1.702c0-0.985,0.821-1.737,2.182-1.737
		c0.65,0,1.13,0.137,1.472,0.291l-0.291,1.052c-0.231-0.111-0.642-0.273-1.207-0.273c-0.563,0-0.838,0.256-0.838,0.556
		c0,0.368,0.325,0.53,1.07,0.813c1.018,0.377,1.496,0.908,1.496,1.72c0,0.966-0.744,1.788-2.327,1.788
		c-0.658,0-1.309-0.171-1.634-0.351L204.025,108.787z"/>
	<path fill="#FFFFFF" d="M209.945,108.651l-0.41,1.48h-1.352l1.762-5.767h1.711l1.789,5.767h-1.404l-0.443-1.48H209.945z
		 M211.408,107.676l-0.359-1.224c-0.102-0.343-0.205-0.771-0.29-1.112h-0.018c-0.085,0.342-0.171,0.779-0.265,1.112l-0.343,1.224
		H211.408z"/>
	<path fill="#FFFFFF" d="M215.523,104.364v2.216h2.148v-2.216h1.301v5.767h-1.301v-2.414h-2.148v2.414h-1.309v-5.767H215.523z"/>
</g>
<g>
	<path fill="#E9B356" d="M188.285,122.618c0.273,0.158,0.685,0.294,1.116,0.294c0.54,0,0.842-0.253,0.842-0.629
		c0-0.349-0.233-0.555-0.821-0.767c-0.76-0.274-1.246-0.678-1.246-1.341c0-0.753,0.63-1.328,1.629-1.328
		c0.5,0,0.869,0.109,1.109,0.232l-0.205,0.678c-0.164-0.089-0.486-0.219-0.918-0.219c-0.533,0-0.766,0.287-0.766,0.554
		c0,0.356,0.267,0.521,0.882,0.76c0.802,0.302,1.191,0.705,1.191,1.369c0,0.74-0.562,1.383-1.753,1.383
		c-0.485,0-0.992-0.137-1.245-0.288L188.285,122.618z"/>
	<path fill="#E9B356" d="M192.7,118.921v4.615h-0.843v-4.615H192.7z"/>
	<path fill="#E9B356" d="M193.666,123.536v-4.615h0.958l1.19,1.979c0.309,0.513,0.575,1.047,0.787,1.547h0.014
		c-0.055-0.616-0.074-1.212-0.074-1.917v-1.609h0.779v4.615h-0.869l-1.204-2.026c-0.295-0.507-0.603-1.075-0.829-1.596l-0.02,0.007
		c0.033,0.595,0.041,1.205,0.041,1.965v1.65H193.666z"/>
	<path fill="#E9B356" d="M201.599,123.398c-0.198,0.103-0.636,0.206-1.191,0.206c-1.465,0-2.354-0.917-2.354-2.32
		c0-1.52,1.055-2.437,2.465-2.437c0.555,0,0.951,0.116,1.123,0.205l-0.186,0.671c-0.219-0.096-0.521-0.178-0.903-0.178
		c-0.938,0-1.616,0.589-1.616,1.698c0,1.014,0.596,1.664,1.609,1.664c0.342,0,0.698-0.068,0.916-0.171L201.599,123.398z"/>
	<path fill="#E9B356" d="M204.898,121.489h-1.739v1.355h1.944v0.692h-2.786v-4.615H205v0.692h-1.841v1.19h1.739V121.489z"/>
</g>
<g>
	<path fill="#E9B356" d="M191.102,127.586v0.468h-1.405v-0.468H191.102z"/>
	<path fill="#E9B356" d="M191.503,129.289v-0.414l0.425-0.391c0.843-0.783,1.239-1.212,1.244-1.686c0-0.319-0.17-0.601-0.639-0.601
		c-0.314,0-0.584,0.16-0.766,0.297l-0.198-0.479c0.259-0.209,0.649-0.369,1.102-0.369c0.794,0,1.179,0.501,1.179,1.086
		c0,0.627-0.451,1.134-1.074,1.712l-0.313,0.271v0.011h1.471v0.562H191.503z"/>
	<path fill="#E9B356" d="M196.984,127.477c0,1.151-0.452,1.873-1.306,1.873c-0.827,0-1.268-0.749-1.272-1.839
		c0-1.114,0.474-1.863,1.311-1.863C196.582,125.647,196.984,126.418,196.984,127.477z M195.089,127.51
		c-0.005,0.87,0.237,1.321,0.611,1.321c0.397,0,0.606-0.485,0.606-1.344c0-0.832-0.199-1.323-0.606-1.323
		C195.337,126.165,195.084,126.612,195.089,127.51z"/>
	<path fill="#E9B356" d="M198.471,126.319h-0.01l-0.656,0.331l-0.116-0.512l0.87-0.429h0.568v3.581h-0.656V126.319z"/>
	<path fill="#E9B356" d="M201.854,129.289v-0.909h-1.62v-0.44l1.46-2.231h0.799v2.159h0.463v0.512h-0.463v0.909H201.854z
		 M201.854,127.867v-0.975c0-0.204,0.005-0.413,0.021-0.623h-0.021c-0.109,0.226-0.204,0.408-0.314,0.606l-0.655,0.981l-0.005,0.011
		H201.854z"/>
	<path fill="#E9B356" d="M204.646,127.586v0.468h-1.406v-0.468H204.646z"/>
</g>
</svg>
